<svg version="1.1" xmlns="http://www.w3.org/2000/svg" viewBox="0 0 1017 563" width="1017"
    height="563">
    <!-- svg-source:excalidraw -->

    <defs>
        <style class="style-fonts">
            @font-face {
            font-family: "Virgil";
            src: url("https://excalidraw.com/Virgil.woff2");
            }
            @font-face {
            font-family: "Cascadia";
            src: url("https://excalidraw.com/Cascadia.woff2");
            }
            @font-face {
            font-family: "Assistant";
            src: url("https://excalidraw.com/Assistant-Regular.woff2");
            }
        </style>

    </defs>
    <rect x="0" y="0" width="1017" height="563" fill="#ffffff"></rect>
    <g stroke-linecap="round" transform="translate(225 235) rotate(0 72 44)">
        <path
            d="M22 0 C49.12 -3.11, 79.36 -1.71, 122 0 C138.14 -1.96, 140.9 10.52, 144 22 C143.36 37.74, 144.18 52.59, 144 66 C144.52 83.95, 135.23 88.71, 122 88 C95.4 88, 70.47 87.5, 22 88 C10.8 89.25, -2.77 77.45, 0 66 C2.29 56.61, -1.31 45.26, 0 22 C1.71 8.08, 9.59 0.82, 22 0"
            stroke="none" stroke-width="0" fill="#a5d8ff"></path>
        <path
            d="M22 0 C61.16 -0.76, 96.68 -0.39, 122 0 M22 0 C60.78 0.13, 98.39 0.57, 122 0 M122 0 C136.12 1.78, 145.05 7.41, 144 22 M122 0 C135.17 -0.73, 143.19 5.1, 144 22 M144 22 C144.73 31.61, 143.52 42.25, 144 66 M144 22 C144.8 36.9, 143.95 53.02, 144 66 M144 66 C142.26 80, 138.37 87.21, 122 88 M144 66 C144.44 80.58, 136.9 88.2, 122 88 M122 88 C102.8 86.7, 80.61 89.85, 22 88 M122 88 C97.57 88.81, 74.82 88.44, 22 88 M22 88 C5.89 89.89, -1.68 78.97, 0 66 M22 88 C8.09 89.93, 0.76 79.33, 0 66 M0 66 C-0.85 56.89, -1.6 42.89, 0 22 M0 66 C0.17 50.16, -0.73 34.58, 0 22 M0 22 C0.1 8.77, 8.85 -0.71, 22 0 M0 22 C0.48 6.28, 6.42 -0.38, 22 0"
            stroke="#1e1e1e" stroke-width="2" fill="none"></path>
    </g>
    <g transform="translate(274.65833282470703 266.5) rotate(0 22.34166717529297 12.5)">
        <text x="22.34166717529297" y="17.52" font-family="Virgil, Segoe UI Emoji" font-size="20px"
            fill="#1e1e1e" text-anchor="middle" style="white-space: pre;" direction="ltr"
            dominant-baseline="alphabetic">User</text>
    </g>
    <g stroke-linecap="round" transform="translate(659 238) rotate(0 72 44)">
        <path
            d="M22 0 C59.99 4.99, 92 2.24, 122 0 C138.26 1.49, 146.14 9.05, 144 22 C141.91 33.75, 146.1 40.33, 144 66 C147.32 83.92, 137.99 90.83, 122 88 C87.27 84.67, 49.39 83.29, 22 88 C10.67 85.84, 0.26 83.15, 0 66 C1.9 50.74, -3.1 36.11, 0 22 C-0.71 5.06, 4.77 2.84, 22 0"
            stroke="none" stroke-width="0" fill="#a5d8ff"></path>
        <path
            d="M22 0 C53.2 -0.82, 85.69 1.5, 122 0 M22 0 C46.97 0.58, 72.59 0.84, 122 0 M122 0 C134.67 0.75, 145.12 8.83, 144 22 M122 0 C135.12 -0.55, 145.65 8.59, 144 22 M144 22 C143.34 36.22, 145.09 56.04, 144 66 M144 22 C142.9 33.51, 142.7 43.31, 144 66 M144 66 C144.42 79.55, 137.43 86.42, 122 88 M144 66 C146.13 82.23, 136.68 85.87, 122 88 M122 88 C89.05 86.9, 58.57 88.98, 22 88 M122 88 C99.21 87.03, 77.02 87.96, 22 88 M22 88 C9 89.46, -1.97 81.39, 0 66 M22 88 C9.02 85.79, 1.93 78.68, 0 66 M0 66 C1.44 53.02, 2.05 35.67, 0 22 M0 66 C0.98 54.79, 0.97 43.28, 0 22 M0 22 C0.02 7.52, 7.7 -0.85, 22 0 M0 22 C0.84 5.98, 7.44 0.43, 22 0"
            stroke="#1e1e1e" stroke-width="2" fill="none"></path>
    </g>
    <g transform="translate(704.8333339691162 269.5) rotate(0 26.16666603088379 12.5)">
        <text x="26.16666603088379" y="17.52" font-family="Virgil, Segoe UI Emoji" font-size="20px"
            fill="#1e1e1e" text-anchor="middle" style="white-space: pre;" direction="ltr"
            dominant-baseline="alphabetic">Flight</text>
    </g>
    <g stroke-linecap="round" transform="translate(862 122) rotate(0 72 44)">
        <path
            d="M22 0 C47.64 -0.02, 77.91 -2.72, 122 0 C138.59 2.23, 145.07 3.78, 144 22 C146.35 34.79, 144.55 55.76, 144 66 C145.1 80.3, 134.38 89.67, 122 88 C95.42 92.79, 66 86.89, 22 88 C9.9 90.5, 2.66 78.94, 0 66 C3.14 51.4, 0.6 30.11, 0 22 C-1 10, 5.84 -3.39, 22 0"
            stroke="none" stroke-width="0" fill="#a5d8ff"></path>
        <path
            d="M22 0 C47.77 -0.77, 76.48 1.72, 122 0 M22 0 C45.68 0.22, 69.14 -0.87, 122 0 M122 0 C136.76 -0.75, 144.33 8.04, 144 22 M122 0 C136.74 2.12, 142.56 7.71, 144 22 M144 22 C144.39 39.55, 142.41 57.36, 144 66 M144 22 C143.51 35.91, 143.64 50.53, 144 66 M144 66 C142.34 80.12, 137.7 89.03, 122 88 M144 66 C144.46 80.73, 134.45 89.53, 122 88 M122 88 C91.88 86.18, 59.93 88.4, 22 88 M122 88 C96.47 87.61, 70.15 87, 22 88 M22 88 C7 88.06, 1.43 80.52, 0 66 M22 88 C6.89 88.86, 0.19 79.01, 0 66 M0 66 C1.25 53.03, -1.33 40.08, 0 22 M0 66 C0.72 51.63, -0.09 39.27, 0 22 M0 22 C-1.66 6.27, 8.16 0.85, 22 0 M0 22 C1.64 7.36, 7.89 -0.99, 22 0"
            stroke="#1e1e1e" stroke-width="2" fill="none"></path>
    </g>
    <g transform="translate(879.7000007629395 153.5) rotate(0 54.29999923706055 12.5)">
        <text x="54.29999923706055" y="17.52" font-family="Virgil, Segoe UI Emoji" font-size="20px"
            fill="#1e1e1e" text-anchor="middle" style="white-space: pre;" direction="ltr"
            dominant-baseline="alphabetic">Flight Type</text>
    </g>
    <g stroke-linecap="round" transform="translate(862 239) rotate(0 72 44)">
        <path
            d="M22 0 C56.97 4.21, 97.58 0.43, 122 0 C134.65 -2.39, 141.02 9.86, 144 22 C145.61 36.44, 144.44 50.21, 144 66 C141.06 81.87, 139.2 90.76, 122 88 C91.64 89.55, 64.08 88.63, 22 88 C4 89.69, -0.62 82.01, 0 66 C3.06 54.24, -0.66 35.62, 0 22 C-0.47 10.9, 8.85 -2.99, 22 0"
            stroke="none" stroke-width="0" fill="#a5d8ff"></path>
        <path
            d="M22 0 C51.36 -1.79, 82.62 -0.73, 122 0 M22 0 C48.17 0.16, 74.52 -1.21, 122 0 M122 0 C135.98 0.19, 142.78 6.85, 144 22 M122 0 C137.66 0.99, 145.07 7.41, 144 22 M144 22 C145.66 35.82, 143.78 52.37, 144 66 M144 22 C143.52 38.53, 144.1 54.67, 144 66 M144 66 C143.42 79.52, 134.95 89.95, 122 88 M144 66 C144.68 78.43, 134.94 87.91, 122 88 M122 88 C97.48 89.06, 76.44 90.21, 22 88 M122 88 C89.77 86.33, 57.6 88.22, 22 88 M22 88 C8.45 87.41, 0.66 82.52, 0 66 M22 88 C7.62 89.24, 0.78 81.71, 0 66 M0 66 C-0.22 49.74, -1.89 34.35, 0 22 M0 66 C0.14 49.1, 0.9 31.19, 0 22 M0 22 C0.51 7.47, 7.79 -0.76, 22 0 M0 22 C-0.67 6.31, 5.84 0.83, 22 0"
            stroke="#1e1e1e" stroke-width="2" fill="none"></path>
    </g>
    <g transform="translate(899.0499992370605 270.5) rotate(0 34.95000076293945 12.5)">
        <text x="34.95000076293945" y="17.52" font-family="Virgil, Segoe UI Emoji" font-size="20px"
            fill="#1e1e1e" text-anchor="middle" style="white-space: pre;" direction="ltr"
            dominant-baseline="alphabetic">Balloon</text>
    </g>
    <g stroke-linecap="round" transform="translate(862 350) rotate(0 72 44)">
        <path
            d="M22 0 C46.91 2.54, 72.65 1.21, 122 0 C138.36 -1.39, 143.94 8.95, 144 22 C144.69 36.31, 147.87 59.8, 144 66 C144.7 80.67, 135.02 91.13, 122 88 C84.02 89.34, 46.83 85.38, 22 88 C8.37 90.8, -2.26 82.63, 0 66 C-1.87 47.38, 1.12 32.04, 0 22 C-0.89 10.92, 4.48 0.53, 22 0"
            stroke="none" stroke-width="0" fill="#a5d8ff"></path>
        <path
            d="M22 0 C43.39 0.37, 63.34 1.9, 122 0 M22 0 C47.65 -0.45, 72.56 -0.51, 122 0 M122 0 C135.37 0.72, 145.27 5.79, 144 22 M122 0 C135.08 -0.89, 145.9 9.16, 144 22 M144 22 C142.1 35.61, 144.01 47.46, 144 66 M144 22 C144.15 37.66, 143.33 53.29, 144 66 M144 66 C145.41 82.2, 136.78 87.03, 122 88 M144 66 C145.85 80.79, 136.73 90.03, 122 88 M122 88 C93.92 89.21, 66.64 86.5, 22 88 M122 88 C92.17 87.52, 63.01 89.47, 22 88 M22 88 C8.18 86.34, 1.37 79.68, 0 66 M22 88 C7.28 89.31, 2.18 78.67, 0 66 M0 66 C0.52 58.34, -1.25 47.7, 0 22 M0 66 C0.42 51.73, -0.97 36.96, 0 22 M0 22 C1.91 6.69, 6.19 1.9, 22 0 M0 22 C-1.13 7.85, 5.84 -0.91, 22 0"
            stroke="#1e1e1e" stroke-width="2" fill="none"></path>
    </g>
    <g transform="translate(898.6500015258789 381.5) rotate(0 35.349998474121094 12.5)">
        <text x="35.349998474121094" y="17.52" font-family="Virgil, Segoe UI Emoji" font-size="20px"
            fill="#1e1e1e" text-anchor="middle" style="white-space: pre;" direction="ltr"
            dominant-baseline="alphabetic">Basket</text>
    </g>
    <g stroke-linecap="round" transform="translate(863 465) rotate(0 72 44)">
        <path
            d="M22 0 C48.2 0.39, 74.37 -1.79, 122 0 C139.14 1.38, 142.23 10.09, 144 22 C142.2 39.25, 146.78 52.36, 144 66 C145.92 82.58, 136.56 85.92, 122 88 C86.65 90.56, 61.09 87.61, 22 88 C10.26 85.19, -2.43 83.18, 0 66 C-1.53 52.46, 4.15 40.63, 0 22 C0.67 8.28, 5.26 -3.13, 22 0"
            stroke="none" stroke-width="0" fill="#a5d8ff"></path>
        <path
            d="M22 0 C56.69 0.91, 90.71 2.06, 122 0 M22 0 C42.92 -0.92, 65.76 -0.21, 122 0 M122 0 C136.96 0.99, 142.76 8.76, 144 22 M122 0 C135.56 0.08, 143.18 8.62, 144 22 M144 22 C144.49 39.02, 144.53 54.07, 144 66 M144 22 C144.18 36.1, 143.52 50.54, 144 66 M144 66 C143.71 82.21, 135 86.34, 122 88 M144 66 C144.22 81.37, 134.51 87.1, 122 88 M122 88 C97.53 87.13, 72.62 86.67, 22 88 M122 88 C93.97 88.29, 65.84 87.27, 22 88 M22 88 C7.76 89.93, 1.91 79.02, 0 66 M22 88 C7.46 87.9, 0.77 80.65, 0 66 M0 66 C-1.63 49.29, 1.12 31.59, 0 22 M0 66 C-0.67 50.83, -0.66 33.99, 0 22 M0 22 C-1.94 5.74, 5.97 -0.97, 22 0 M0 22 C0.98 6.71, 8.78 -0.63, 22 0"
            stroke="#1e1e1e" stroke-width="2" fill="none"></path>
    </g>
    <g transform="translate(904.1166667938232 496.5) rotate(0 30.883333206176758 12.5)">
        <text x="30.883333206176758" y="17.52" font-family="Virgil, Segoe UI Emoji" font-size="20px"
            fill="#1e1e1e" text-anchor="middle" style="white-space: pre;" direction="ltr"
            dominant-baseline="alphabetic">Vehicle</text>
    </g>
    <g stroke-linecap="round" transform="translate(862 10) rotate(0 72 44)">
        <path
            d="M22 0 C60.59 1.89, 101.56 2.81, 122 0 C134.34 -1.53, 146.75 5.6, 144 22 C145.83 35.33, 144.76 49.29, 144 66 C142.82 80.17, 139.37 85.05, 122 88 C91.99 88.23, 56.86 84.51, 22 88 C10.45 86.86, 1.67 80.22, 0 66 C3.93 47, 1.73 32.16, 0 22 C-0.72 8.94, 10.21 1.04, 22 0"
            stroke="none" stroke-width="0" fill="#a5d8ff"></path>
        <path
            d="M22 0 C47.87 0.22, 73.72 -1, 122 0 M22 0 C59.64 0.66, 96.61 0.71, 122 0 M122 0 C135.29 1.85, 145.16 8.73, 144 22 M122 0 C137.89 1.22, 143.93 6.01, 144 22 M144 22 C142.17 36.91, 145.85 49.44, 144 66 M144 22 C144.35 38.58, 142.86 55.17, 144 66 M144 66 C142.8 79.99, 138.62 87.59, 122 88 M144 66 C144.43 81.27, 135.34 86, 122 88 M122 88 C84.4 87.99, 47.27 89.55, 22 88 M122 88 C86.17 87.13, 47.76 86.49, 22 88 M22 88 C5.73 87.77, 1.69 79.13, 0 66 M22 88 C7.01 89.42, -1.63 78.67, 0 66 M0 66 C0.96 55.36, -2.34 47.78, 0 22 M0 66 C-0.43 52.26, -1.28 39.5, 0 22 M0 22 C0.66 6.93, 8.99 -0.8, 22 0 M0 22 C2.06 7.12, 5.7 1.73, 22 0"
            stroke="#1e1e1e" stroke-width="2" fill="none"></path>
    </g>
    <g transform="translate(873.341667175293 41.5) rotate(0 60.65833282470703 12.5)">
        <text x="60.65833282470703" y="17.52" font-family="Virgil, Segoe UI Emoji" font-size="20px"
            fill="#1e1e1e" text-anchor="middle" style="white-space: pre;" direction="ltr"
            dominant-baseline="alphabetic">Flight Trace</text>
    </g>
    <g stroke-linecap="round" transform="translate(446 235) rotate(0 72 44)">
        <path
            d="M22 0 C61.11 -0.76, 99.46 -1.51, 122 0 C133.63 -3.35, 141.86 4.39, 144 22 C144.21 31.11, 141.14 45.81, 144 66 C147.07 81.72, 138.57 86.12, 122 88 C97.75 85.28, 75.17 90.98, 22 88 C5.6 87.8, -0.74 79.3, 0 66 C-0.23 50.91, -2.49 37.26, 0 22 C-0.96 8.25, 9.5 -0.55, 22 0"
            stroke="none" stroke-width="0" fill="#b2f2bb"></path>
        <path
            d="M22 0 C60.53 1.05, 100.4 1.56, 122 0 M22 0 C45.05 -0.86, 69.79 -1.54, 122 0 M122 0 C137.36 0.31, 144.1 8.31, 144 22 M122 0 C135.91 -0.32, 145.73 5.45, 144 22 M144 22 C144.5 36.41, 142.15 47.93, 144 66 M144 22 C143.74 39.57, 143.01 55.18, 144 66 M144 66 C145.81 78.79, 137.25 86.56, 122 88 M144 66 C143.54 81.7, 138.5 88.66, 122 88 M122 88 C102.69 89.8, 78.69 88.1, 22 88 M122 88 C101.47 88.82, 78.88 88.19, 22 88 M22 88 C7.24 89.61, 0.42 80.61, 0 66 M22 88 C8.05 89.57, 1.23 79.34, 0 66 M0 66 C-0.49 50.53, -0.14 33.15, 0 22 M0 66 C1.33 52.97, 0.54 39.22, 0 22 M0 22 C-0.15 8.66, 6.32 -0.03, 22 0 M0 22 C-0.34 6.06, 5.57 0.53, 22 0"
            stroke="#1e1e1e" stroke-width="2" fill="none"></path>
    </g>
    <g transform="translate(452.5250015258789 266.5) rotate(0 65.4749984741211 12.5)">
        <text x="65.4749984741211" y="17.52" font-family="Virgil, Segoe UI Emoji" font-size="20px"
            fill="#1e1e1e" text-anchor="middle" style="white-space: pre;" direction="ltr"
            dominant-baseline="alphabetic">Flight Member</text>
    </g>
    <g stroke-linecap="round" transform="translate(10 236) rotate(0 72 44)">
        <path
            d="M22 0 C55.75 0.62, 96.19 -0.9, 122 0 C139.23 -0.13, 141.31 8.34, 144 22 C141.1 34.2, 146.81 39.59, 144 66 C142.08 77.91, 139.87 86.9, 122 88 C103.04 89.45, 77.41 92.76, 22 88 C8.4 89.25, 2.73 79.37, 0 66 C-0.39 45.91, 2.81 32.68, 0 22 C1.67 7.7, 9.19 0.13, 22 0"
            stroke="none" stroke-width="0" fill="#ffc9c9"></path>
        <path
            d="M22 0 C54.09 -2.24, 88.43 -0.55, 122 0 M22 0 C49.95 0.64, 79.26 0, 122 0 M122 0 C138.19 -0.19, 142.22 8.73, 144 22 M122 0 C134.91 2.16, 143.62 7.32, 144 22 M144 22 C142.09 31.68, 142.95 45.63, 144 66 M144 22 C143.55 35.76, 145.07 50.51, 144 66 M144 66 C144.01 82.35, 137.09 87.21, 122 88 M144 66 C145.03 79.62, 135.51 89.37, 122 88 M122 88 C98.61 90.33, 76.84 89.6, 22 88 M122 88 C84.89 88.74, 49.17 89.3, 22 88 M22 88 C7.08 88.81, -1.06 81.61, 0 66 M22 88 C6.47 86.58, 0.64 79.7, 0 66 M0 66 C2.25 53.46, 1.59 43.79, 0 22 M0 66 C1.15 55.61, 1.03 44.02, 0 22 M0 22 C-0.18 6.59, 7.22 0.45, 22 0 M0 22 C-2.23 8.7, 5.78 -0.91, 22 0"
            stroke="#1e1e1e" stroke-width="2" fill="none"></path>
    </g>
    <g transform="translate(35.86666488647461 255) rotate(0 46.13333511352539 25)">
        <text x="46.13333511352539" y="17.52" font-family="Virgil, Segoe UI Emoji" font-size="20px"
            fill="#1e1e1e" text-anchor="middle" style="white-space: pre;" direction="ltr"
            dominant-baseline="alphabetic">Message </text>
        <text x="46.13333511352539" y="42.519999999999996" font-family="Virgil, Segoe UI Emoji"
            font-size="20px" fill="#1e1e1e" text-anchor="middle" style="white-space: pre;"
            direction="ltr" dominant-baseline="alphabetic">Group</text>
    </g>
    <g stroke-linecap="round" transform="translate(11 380) rotate(0 72 44)">
        <path
            d="M22 0 C41.58 -2.35, 62.59 1.82, 122 0 C134.37 -2.85, 143.86 10.91, 144 22 C142.6 36.7, 144.49 56.07, 144 66 C144.68 80.29, 137.23 89.84, 122 88 C93.01 90.03, 67.19 87.06, 22 88 C7.52 85, -1.74 83.86, 0 66 C-2.36 49.78, -2.78 35.99, 0 22 C0.95 5.62, 5.11 -0.86, 22 0"
            stroke="none" stroke-width="0" fill="#ffc9c9"></path>
        <path
            d="M22 0 C54.51 1.49, 84.8 -1.36, 122 0 M22 0 C48.43 -0.2, 76.28 0.3, 122 0 M122 0 C135.86 -1.05, 143.53 9.29, 144 22 M122 0 C137.03 0.27, 142.32 8.43, 144 22 M144 22 C144.99 32.69, 143.25 42.95, 144 66 M144 22 C143.91 35.41, 143.1 46.76, 144 66 M144 66 C144.06 80.5, 137.85 88.83, 122 88 M144 66 C142.81 81.85, 136.13 85.87, 122 88 M122 88 C90.22 88.32, 58.76 86.98, 22 88 M122 88 C84.29 87.54, 48.11 88.53, 22 88 M22 88 C8.13 87.28, 1.63 82.31, 0 66 M22 88 C6.42 90.1, 0.76 78.61, 0 66 M0 66 C-0.38 52.39, 1.71 37.14, 0 22 M0 66 C-1.21 52.98, -1.28 38.83, 0 22 M0 22 C-1.79 8.01, 8.8 -1.82, 22 0 M0 22 C0.06 5.22, 9.62 2.11, 22 0"
            stroke="#1e1e1e" stroke-width="2" fill="none"></path>
    </g>
    <g transform="translate(41.86666488647461 411.5) rotate(0 41.13333511352539 12.5)">
        <text x="41.13333511352539" y="17.52" font-family="Virgil, Segoe UI Emoji" font-size="20px"
            fill="#1e1e1e" text-anchor="middle" style="white-space: pre;" direction="ltr"
            dominant-baseline="alphabetic">Message</text>
    </g>
    <g stroke-linecap="round">
        <g
            transform="translate(816 278.9657832019062) rotate(0 16.000000000000114 0.004395734645640914)">
            <path
                d="M-0.09 0.47 C5.28 0.43, 26.63 -0.21, 31.97 -0.2 M-0.8 0.24 C4.52 0.26, 26.12 0.48, 31.52 0.4"
                stroke="#1e1e1e" stroke-width="2" fill="none"></path>
        </g>
        <g
            transform="translate(816 278.9657832019062) rotate(0 16.000000000000114 0.004395734645640914)">
            <path
                d="M14.81 -5.34 C11.77 -3.94, 7.06 -2.5, -0.09 0.47 M14.81 -5.34 C9.19 -2.86, 2.69 -0.41, -0.09 0.47"
                stroke="#1e1e1e" stroke-width="2" fill="none"></path>
        </g>
        <g
            transform="translate(816 278.9657832019062) rotate(0 16.000000000000114 0.004395734645640914)">
            <path
                d="M15.06 5.6 C11.95 4.26, 7.18 2.97, -0.09 0.47 M15.06 5.6 C9.38 3.76, 2.78 1.88, -0.09 0.47"
                stroke="#1e1e1e" stroke-width="2" fill="none"></path>
        </g>
    </g>
    <mask></mask>
    <g stroke-linecap="round">
        <g
            transform="translate(808.0586259476327 228.23218020631333) rotate(0 20.47068702618367 -26.61425243018175)">
            <path
                d="M-0.29 1.15 C6.17 -7.99, 33.08 -44.44, 39.83 -53.62 M1.76 0.7 C8.48 -7.76, 35.14 -43.35, 41.95 -52.29"
                stroke="#1e1e1e" stroke-width="2" fill="none"></path>
        </g>
        <g
            transform="translate(808.0586259476327 228.23218020631333) rotate(0 20.47068702618367 -26.61425243018175)">
            <path
                d="M6.67 -22.86 C6.11 -15.39, 0.83 -5.49, -0.29 1.15 M6.67 -22.86 C5.54 -16.15, 2.64 -11.78, -0.29 1.15"
                stroke="#1e1e1e" stroke-width="2" fill="none"></path>
        </g>
        <g
            transform="translate(808.0586259476327 228.23218020631333) rotate(0 20.47068702618367 -26.61425243018175)">
            <path
                d="M20.48 -12.77 C14.44 -9.26, 3.78 -3.3, -0.29 1.15 M20.48 -12.77 C16.1 -8.58, 9.87 -6.65, -0.29 1.15"
                stroke="#1e1e1e" stroke-width="2" fill="none"></path>
        </g>
    </g>
    <mask></mask>
    <g stroke-linecap="round">
        <g transform="translate(764 221) rotate(0 40.5 -75)">
            <path
                d="M-1.04 1.05 C12.54 -23.74, 68.62 -124.35, 82.13 -149.71 M0.61 0.55 C14.07 -24.53, 68.14 -126.53, 81.77 -151.68"
                stroke="#1e1e1e" stroke-width="2" fill="none"></path>
        </g>
        <g transform="translate(764 221) rotate(0 40.5 -75)">
            <path
                d="M78.23 -126.93 C81.44 -133.81, 81.44 -146.12, 81.77 -151.68 M78.23 -126.93 C79.55 -131.81, 79.05 -136.53, 81.77 -151.68"
                stroke="#1e1e1e" stroke-width="2" fill="none"></path>
        </g>
        <g transform="translate(764 221) rotate(0 40.5 -75)">
            <path
                d="M63.15 -135 C71.65 -138.88, 77.01 -148.32, 81.77 -151.68 M63.15 -135 C67.64 -138.15, 70.29 -141.17, 81.77 -151.68"
                stroke="#1e1e1e" stroke-width="2" fill="none"></path>
        </g>
    </g>
    <mask></mask>
    <g stroke-linecap="round">
        <g
            transform="translate(814.170371571628 331.2388169266095) rotate(0 17.97068702618367 22.88574756981825)">
            <path
                d="M-0.17 0.81 C5.81 8.68, 29.6 38.66, 35.64 46.22 M-1.72 0.19 C4.1 7.77, 28.36 37.03, 34.53 44.33"
                stroke="#1e1e1e" stroke-width="2" fill="none"></path>
        </g>
        <g
            transform="translate(814.170371571628 331.2388169266095) rotate(0 17.97068702618367 22.88574756981825)">
            <path
                d="M21.07 13.99 C16.6 9.77, 10.06 6.76, -0.17 0.81 M21.07 13.99 C13.3 10.67, 7.16 5.89, -0.17 0.81"
                stroke="#1e1e1e" stroke-width="2" fill="none"></path>
        </g>
        <g
            transform="translate(814.170371571628 331.2388169266095) rotate(0 17.97068702618367 22.88574756981825)">
            <path
                d="M7.63 24.56 C6.99 17.41, 4.21 11.45, -0.17 0.81 M7.63 24.56 C4.36 17.73, 2.65 9.47, -0.17 0.81"
                stroke="#1e1e1e" stroke-width="2" fill="none"></path>
        </g>
    </g>
    <mask></mask>
    <g stroke-linecap="round">
        <g transform="translate(764 339) rotate(0 42 85)">
            <path
                d="M0.99 -0.77 C14.83 27.82, 70.44 141.75, 84.08 170.39 M0.06 1.44 C13.65 29.76, 69 140.49, 83.18 168.47"
                stroke="#1e1e1e" stroke-width="2" fill="none"></path>
        </g>
        <g transform="translate(764 339) rotate(0 42 85)">
            <path
                d="M18.96 16.62 C10.86 10.15, 5.81 1.31, 0.99 -0.77 M18.96 16.62 C12.69 10.1, 4.76 2.42, 0.99 -0.77"
                stroke="#1e1e1e" stroke-width="2" fill="none"></path>
        </g>
        <g transform="translate(764 339) rotate(0 42 85)">
            <path
                d="M3.58 24.1 C1.53 14.6, 2.45 2.85, 0.99 -0.77 M3.58 24.1 C3.29 14.77, 1.37 4.17, 0.99 -0.77"
                stroke="#1e1e1e" stroke-width="2" fill="none"></path>
        </g>
    </g>
    <mask></mask>
    <g stroke-linecap="round">
        <g transform="translate(645 280) rotate(0 -21 -0.5)">
            <path
                d="M0.28 -0.08 C-6.77 -0.28, -35.04 -1.21, -42.12 -1.35 M-0.24 -0.6 C-7.39 -0.72, -35.54 -0.89, -42.61 -0.83"
                stroke="#1e1e1e" stroke-width="2" fill="none"></path>
        </g>
        <g transform="translate(645 280) rotate(0 -21 -0.5)">
            <path
                d="M-22.87 -8.01 C-29.73 -5.74, -36.91 -3.44, -42.61 -0.83 M-22.87 -8.01 C-29.27 -5.61, -35.38 -3.12, -42.61 -0.83"
                stroke="#1e1e1e" stroke-width="2" fill="none"></path>
        </g>
        <g transform="translate(645 280) rotate(0 -21 -0.5)">
            <path
                d="M-22.87 6.36 C-29.71 3.76, -36.89 1.18, -42.61 -0.83 M-22.87 6.36 C-29.23 4.21, -35.33 2.15, -42.61 -0.83"
                stroke="#1e1e1e" stroke-width="2" fill="none"></path>
        </g>
    </g>
    <mask></mask>
    <g stroke-linecap="round">
        <g transform="translate(382 278) rotate(0 24.5 0)">
            <path
                d="M0.51 0.26 C8.62 0.24, 40.6 0.01, 48.61 0.03 M0.11 -0.08 C8.4 -0.01, 41.39 0.81, 49.65 0.75"
                stroke="#1e1e1e" stroke-width="2" fill="none"></path>
        </g>
        <g transform="translate(382 278) rotate(0 24.5 0)">
            <path
                d="M26.54 8.88 C33.68 5.72, 39.94 3.3, 49.65 0.75 M26.54 8.88 C35.04 6.27, 44.06 2.31, 49.65 0.75"
                stroke="#1e1e1e" stroke-width="2" fill="none"></path>
        </g>
        <g transform="translate(382 278) rotate(0 24.5 0)">
            <path
                d="M26.72 -7.88 C33.83 -6.2, 40.03 -3.77, 49.65 0.75 M26.72 -7.88 C35.12 -4.26, 44.08 -2.01, 49.65 0.75"
                stroke="#1e1e1e" stroke-width="2" fill="none"></path>
        </g>
    </g>
    <mask></mask>
    <g stroke-linecap="round">
        <g transform="translate(208 282) rotate(0 -20.5 1)">
            <path
                d="M0.31 -0.49 C-6.49 -0.09, -33.97 1.97, -40.87 2.42 M-0.2 0.45 C-7.05 0.69, -34.36 1.54, -41.24 1.67"
                stroke="#1e1e1e" stroke-width="2" fill="none"></path>
        </g>
        <g transform="translate(208 282) rotate(0 -20.5 1)">
            <path
                d="M-22.14 -5.85 C-28.38 -3.45, -32.09 -1.72, -41.24 1.67 M-22.14 -5.85 C-28.74 -3.11, -34.55 -0.64, -41.24 1.67"
                stroke="#1e1e1e" stroke-width="2" fill="none"></path>
        </g>
        <g transform="translate(208 282) rotate(0 -20.5 1)">
            <path
                d="M-21.77 8.19 C-28.13 6.65, -31.94 4.43, -41.24 1.67 M-21.77 8.19 C-28.49 6.21, -34.42 3.98, -41.24 1.67"
                stroke="#1e1e1e" stroke-width="2" fill="none"></path>
        </g>
    </g>
    <mask></mask>
    <g stroke-linecap="round">
        <g transform="translate(80 367) rotate(0 0.5 -14.5)">
            <path
                d="M0.42 0.36 C0.57 -4.46, 0.93 -23.6, 1.11 -28.47 M-0.04 0.06 C0.05 -4.93, 0.5 -24.45, 0.73 -29.17"
                stroke="#1e1e1e" stroke-width="2" fill="none"></path>
        </g>
        <g transform="translate(80 367) rotate(0 0.5 -14.5)">
            <path
                d="M5.23 -15.37 C4.17 -19.74, 2.92 -23.77, 0.73 -29.17 M5.23 -15.37 C4.05 -19.66, 1.99 -24.29, 0.73 -29.17"
                stroke="#1e1e1e" stroke-width="2" fill="none"></path>
        </g>
        <g transform="translate(80 367) rotate(0 0.5 -14.5)">
            <path
                d="M-4.69 -15.71 C-2.49 -20.01, -0.49 -23.93, 0.73 -29.17 M-4.69 -15.71 C-2.72 -19.84, -1.64 -24.37, 0.73 -29.17"
                stroke="#1e1e1e" stroke-width="2" fill="none"></path>
        </g>
    </g>
    <mask></mask>
    <g stroke-linecap="round" transform="translate(218 72) rotate(0 72 44)">
        <path
            d="M22 0 C40.42 -4.04, 64.6 -2.8, 122 0 C140.09 -0.02, 140.72 5.85, 144 22 C146.27 36.79, 147.04 54.12, 144 66 C147.19 80.9, 135.7 90.98, 122 88 C87.13 91.32, 47.06 87.22, 22 88 C4.48 85.48, -2.28 81.61, 0 66 C-2.74 46.26, -0.98 36.46, 0 22 C-2.25 9.3, 7.47 2.61, 22 0"
            stroke="none" stroke-width="0" fill="#ffc9c9"></path>
        <path
            d="M22 0 C50.19 1.45, 83.16 0.32, 122 0 M22 0 C44.15 -0.14, 64.84 1.15, 122 0 M122 0 C134.84 -1.34, 143.41 8.33, 144 22 M122 0 C137.28 -0.35, 141.82 8.27, 144 22 M144 22 C141.94 33.74, 142.28 46.61, 144 66 M144 22 C143.32 33.55, 143.45 44.72, 144 66 M144 66 C143.96 79.39, 137.9 89.95, 122 88 M144 66 C142.41 81.55, 138.78 89.6, 122 88 M122 88 C100.24 87.09, 83.06 85.91, 22 88 M122 88 C85.4 87.93, 49.26 87.1, 22 88 M22 88 C7.39 89.41, 0.34 79.44, 0 66 M22 88 C7.92 87.83, 1.85 79.36, 0 66 M0 66 C-0.35 51.99, 1.78 39.35, 0 22 M0 66 C-0.61 51.52, -0.88 36.07, 0 22 M0 22 C1.53 7.62, 7.15 -0.14, 22 0 M0 22 C0.81 5.9, 5.79 -1.04, 22 0"
            stroke="#1e1e1e" stroke-width="2" fill="none"></path>
    </g>
    <g transform="translate(243.29999923706055 103.5) rotate(0 46.70000076293945 12.5)">
        <text x="46.70000076293945" y="17.52" font-family="Virgil, Segoe UI Emoji" font-size="20px"
            fill="#1e1e1e" text-anchor="middle" style="white-space: pre;" direction="ltr"
            dominant-baseline="alphabetic">Locations</text>
    </g>
    <g stroke-linecap="round">
        <g transform="translate(292 219) rotate(0 0 -24)">
            <path
                d="M0.01 0.39 C0.05 -7.68, 0.3 -40.2, 0.28 -48.2 M-0.64 0.12 C-0.65 -7.9, -0.02 -39.5, 0 -47.6"
                stroke="#1e1e1e" stroke-width="2" fill="none"></path>
        </g>
        <g transform="translate(292 219) rotate(0 0 -24)">
            <path
                d="M7.93 -24.95 C6.15 -31.41, 2.64 -39.11, 0 -47.6 M7.93 -24.95 C4.54 -33.04, 1.65 -41.5, 0 -47.6"
                stroke="#1e1e1e" stroke-width="2" fill="none"></path>
        </g>
        <g transform="translate(292 219) rotate(0 0 -24)">
            <path
                d="M-8.48 -25.15 C-5.2 -31.55, -3.66 -39.19, 0 -47.6 M-8.48 -25.15 C-5.76 -33.12, -2.52 -41.51, 0 -47.6"
                stroke="#1e1e1e" stroke-width="2" fill="none"></path>
        </g>
    </g>
    <mask></mask>
    <g stroke-linecap="round">
        <g stroke-opacity="0.5" fill-opacity="0.5"
            transform="translate(376 107) rotate(0 235 -22.5)">
            <path d="M-0.41 0.54 C77.75 -7.21, 391.1 -38.52, 469.33 -46.16" stroke="#1e1e1e"
                stroke-width="2.5" fill="none" stroke-dasharray="8 10"></path>
        </g>
        <g stroke-opacity="0.5" fill-opacity="0.5"
            transform="translate(376 107) rotate(0 235 -22.5)">
            <path d="M446.79 -35.34 C455.03 -39.92, 459.56 -44.1, 469.33 -46.16" stroke="#1e1e1e"
                stroke-width="2.5" fill="none"></path>
        </g>
        <g stroke-opacity="0.5" fill-opacity="0.5"
            transform="translate(376 107) rotate(0 235 -22.5)">
            <path d="M445.11 -52.36 C453.94 -51.37, 459.02 -49.98, 469.33 -46.16" stroke="#1e1e1e"
                stroke-width="2.5" fill="none"></path>
        </g>
    </g>
    <mask></mask>
</svg>